<?xml version="1.0" encoding="UTF-8" standalone="no"?>
<!-- Created with Inkscape (http://www.inkscape.org/) -->

<svg xmlns="http://www.w3.org/2000/svg"
    height="16px"
    viewBox="0 0 16 16"
    width="16px">
    <path
        d="m 6.0546875,0 -0.140625,0.00195313 a 0.60860085,0.60860085 0 0 0 -0.015625,0 h -0.00977 L 5.7578125,0.0078125 a 0.60860085,0.60860085 0 0 0 -0.015625,0 L 5.6035156,0.01757813 a 0.60860085,0.60860085 0 0 0 -0.015625,0 L 5.4511719,0.03125 a 0.60860085,0.60860085 0 0 0 -0.015625,0 L 5.2988281,0.046875 a 0.60860085,0.60860085 0 0 0 -0.015625,0.0019531 L 5.1464844,0.06835937 A 0.60860085,0.60860085 0 0 0 5.1328125,0.0703125 L 4.9980469,0.09375 a 0.60860085,0.60860085 0 0 0 -0.015625,0.0019531 L 4.8476562,0.12109375 A 0.60860085,0.60860085 0 0 0 4.8339844,0.125 L 4.7011719,0.15429687 A 0.60860085,0.60860085 0 0 0 4.6855469,0.15625 L 4.5644531,0.1875 A 0.60854,0.60854 0 0 0 4.1171875,0.921875 0.60854,0.60854 0 0 0 4.8535156,1.3691406 L 4.9667969,1.3417969 5.0839844,1.3164062 5.203125,1.2929687 5.3242187,1.2734375 5.4433594,1.2558594 5.5664062,1.2421875 5.6894531,1.2304687 5.8125,1.2226562 5.9355469,1.21875 a 0.60854,0.60854 0 0 0 0.00195,0 l 0.125,-0.00195 0.125,0.00195 0.125,0.00391 0.1230469,0.00781 0.1230468,0.011719 0.1210938,0.013672 0.1210937,0.017578 0.1191407,0.019531 0.087891,0.015625 A 0.60854,0.60854 0 0 0 7.7207031,0.82617188 0.60854,0.60854 0 0 0 7.2363281,0.11328125 L 7.1425781,0.09570312 A 0.60860085,0.60860085 0 0 0 7.1269531,0.09375 L 6.9921875,0.0703125 A 0.60860085,0.60860085 0 0 0 6.9765625,0.06835937 L 6.8417969,0.04882812 A 0.60860085,0.60860085 0 0 0 6.8261719,0.046875 L 6.6894531,0.03125 a 0.60860085,0.60860085 0 0 0 -0.015625,0 L 6.5351562,0.01757813 a 0.60860085,0.60860085 0 0 0 -0.015625,0 L 6.3808594,0.0078125 a 0.60860085,0.60860085 0 0 0 -0.015625,0 L 6.2265625,0.00195313 a 0.60860085,0.60860085 0 0 0 -0.015625,0 L 6.0703125,0 A 0.60860085,0.60860085 0 0 0 6.0546875,0 Z M 9.6972656,1.2109375 A 0.60854,0.60854 0 0 0 8.84375,1.3222656 0.60854,0.60854 0 0 0 8.9570313,2.1757813 L 9.0546875,2.25 l 0.089844,0.074219 0.089844,0.074219 0.085937,0.078125 0.085937,0.078125 0.082031,0.082031 0.082031,0.083984 0.080078,0.083984 0.076172,0.087891 0.021484,0.025391 0.054687,0.0625 0.072266,0.091797 0.070312,0.091797 0.070312,0.09375 0.06641,0.095703 0.0625,0.097656 0.0625,0.099609 0.06055,0.1015625 0.05664,0.1015625 0.03125,0.060547 a 0.60854,0.60854 0 0 0 0.822265,0.2539063 0.60854,0.60854 0 0 0 0.253907,-0.8222656 l -0.03516,-0.066406 a 0.60860085,0.60860085 0 0 0 -0.0059,-0.013672 l -0.06445,-0.1152343 a 0.60860085,0.60860085 0 0 0 -0.0078,-0.011719 l -0.06641,-0.1132812 a 0.60860085,0.60860085 0 0 0 -0.0078,-0.013672 l -0.07031,-0.1113281 a 0.60860085,0.60860085 0 0 0 -0.0078,-0.011719 l -0.07227,-0.109375 a 0.60860085,0.60860085 0 0 0 -0.0078,-0.013672 l -0.07422,-0.1074218 a 0.60860085,0.60860085 0 0 0 -0.0098,-0.011719 l -0.07617,-0.1054687 a 0.60860085,0.60860085 0 0 0 -0.0098,-0.011719 l -0.08008,-0.1035156 a 0.60860085,0.60860085 0 0 0 -0.0078,-0.011719 l -0.08203,-0.1015625 a 0.60860085,0.60860085 0 0 0 -0.0098,-0.011719 l -0.05859,-0.070312 -0.02539,-0.029297 a 0.60860085,0.60860085 0 0 0 -0.0098,-0.011719 l -0.08789,-0.097656 a 0.60860085,0.60860085 0 0 0 -0.0098,-0.011719 l -0.08789,-0.095703 A 0.60860085,0.60860085 0 0 0 10.447266,1.875 l -0.0918,-0.09375 a 0.60860085,0.60860085 0 0 0 -0.01172,-0.00977 l -0.0918,-0.091797 a 0.60860085,0.60860085 0 0 0 -0.01172,-0.00977 l -0.0957,-0.089844 a 0.60860085,0.60860085 0 0 0 -0.0098,-0.00977 l -0.09961,-0.085937 a 0.60860085,0.60860085 0 0 0 -0.0098,-0.00977 l -0.09961,-0.085937 a 0.60860085,0.60860085 0 0 0 -0.011719,-0.00781 L 9.8125,1.2988281 a 0.60860085,0.60860085 0 0 0 -0.011719,-0.00977 z m -7.5292968,0.2050781 -0.068359,0.058594 a 0.60860085,0.60860085 0 0 0 -0.011719,0.00977 l -0.097656,0.085937 a 0.60860085,0.60860085 0 0 0 -0.00977,0.00977 l -0.095703,0.089844 a 0.60860085,0.60860085 0 0 0 -0.011719,0.00977 l -0.09375,0.091797 a 0.60860085,0.60860085 0 0 0 -0.00977,0.00977 L 1.6777344,1.875 a 0.60860085,0.60860085 0 0 0 -0.00977,0.00977 l -0.089844,0.095703 a 0.60860085,0.60860085 0 0 0 -0.00977,0.011719 l -0.085937,0.097656 a 0.60860085,0.60860085 0 0 0 -0.00977,0.011719 l -0.083984,0.099609 a 0.60860085,0.60860085 0 0 0 -0.00977,0.011719 L 1.296875,2.3144531 a 0.60860085,0.60860085 0 0 0 -0.00977,0.011719 l -0.046875,0.0625 -0.03125,0.041016 a 0.60860085,0.60860085 0 0 0 -0.00977,0.011719 L 1.1210937,2.546875 a 0.60860085,0.60860085 0 0 0 -0.00781,0.011719 l -0.074219,0.1074218 a 0.60860085,0.60860085 0 0 0 -0.00781,0.013672 l -0.0722656,0.109375 a 0.60860085,0.60860085 0 0 0 -0.007813,0.011719 l -0.0703125,0.1113281 a 0.60860085,0.60860085 0 0 0 -0.007813,0.013672 l -0.0664063,0.1132812 a 0.60860085,0.60860085 0 0 0 -0.007813,0.011719 L 0.734375,3.1660156 a 0.60860085,0.60860085 0 0 0 -0.007813,0.013672 L 0.66601562,3.296875 a 0.60860085,0.60860085 0 0 0 -0.007813,0.011719 L 0.59960937,3.4277344 A 0.60860085,0.60860085 0 0 0 0.59375,3.4414063 L 0.546875,3.5429688 A 0.60854,0.60854 0 0 0 0.83984375,4.3515625 0.60854,0.60854 0 0 0 1.6484375,4.0566406 l 0.044922,-0.09375 0.052734,-0.1054687 0.054687,-0.1035156 0.056641,-0.1015625 0.060547,-0.1015625 0.060547,-0.099609 0.064453,-0.097656 0.066406,-0.095703 0.068359,-0.09375 0.027344,-0.035156 0.044922,-0.056641 0.072266,-0.091797 0.076172,-0.087891 0.076172,-0.087891 0.080078,-0.083984 0.080078,-0.083984 0.083984,-0.082031 0.085937,-0.078125 0.085937,-0.078125 0.064453,-0.052734 a 0.60854,0.60854 0 0 0 0.070312,-0.859375 0.60854,0.60854 0 0 0 -0.8574218,-0.070312 z m 9.3222652,3.8398438 a 0.60854,0.60854 0 0 0 -0.585937,0.6308593 l 0.002,0.050781 0.002,0.1191406 v 0.013672 l -0.002,0.1191406 -0.0039,0.1230469 -0.0078,0.125 -0.01172,0.1230469 -0.01367,0.1210937 -0.01563,0.1210938 -0.02149,0.1191406 -0.02148,0.1191406 -0.02148,0.099609 -0.0039,0.017578 -0.0293,0.1171875 -0.03125,0.1152344 -0.0332,0.1152344 -0.03711,0.1113281 -0.03906,0.1132812 -0.04297,0.109375 -0.04492,0.109375 -0.04687,0.1093751 -0.04687,0.1015625 A 0.60854,0.60854 0 0 0 10.726563,8.96875 0.60854,0.60854 0 0 0 11.535156,8.6757813 l 0.05078,-0.109375 a 0.60860085,0.60860085 0 0 0 0.0078,-0.013672 l 0.05273,-0.1210938 a 0.60860085,0.60860085 0 0 0 0.0059,-0.015625 l 0.05078,-0.1230468 a 0.60860085,0.60860085 0 0 0 0.0039,-0.013672 L 11.755859,8.15625 a 0.60860085,0.60860085 0 0 0 0.0039,-0.015625 l 0.04492,-0.125 a 0.60860085,0.60860085 0 0 0 0.0039,-0.013672 l 0.04297,-0.1289062 a 0.60860085,0.60860085 0 0 0 0.0039,-0.013672 l 0.03711,-0.1289063 a 0.60860085,0.60860085 0 0 0 0.0059,-0.013672 l 0.03516,-0.1308594 a 0.60860085,0.60860085 0 0 0 0.0039,-0.015625 l 0.03125,-0.1308594 a 0.60860085,0.60860085 0 0 0 0.0039,-0.013672 l 0.0039,-0.025391 0.02539,-0.1074219 a 0.60860085,0.60860085 0 0 0 0.002,-0.015625 l 0.02539,-0.1328125 a 0.60860085,0.60860085 0 0 0 0.0039,-0.015625 l 0.02149,-0.1347656 a 0.60860085,0.60860085 0 0 0 0.002,-0.015625 l 0.01953,-0.1367187 a 0.60860085,0.60860085 0 0 0 0.002,-0.013672 l 0.01563,-0.1386719 a 0.60860085,0.60860085 0 0 0 0.002,-0.013672 l 0.01172,-0.1386718 a 0.60860085,0.60860085 0 0 0 0.002,-0.015625 l 0.0078,-0.1386719 a 0.60860085,0.60860085 0 0 0 0.002,-0.015625 l 0.0039,-0.140625 a 0.60860085,0.60860085 0 0 0 0,-0.013672 l 0.002,-0.1425781 a 0.60854,0.60854 0 0 0 -0.002,-0.00781 0.60854,0.60854 0 0 0 0.002,-0.00586 l -0.002,-0.1425781 a 0.60860085,0.60860085 0 0 0 0,-0.013672 l -0.002,-0.060547 A 0.60854,0.60854 0 0 0 11.982422,5.7109375 0.60854,0.60854 0 0 0 11.861328,5.5996094 0.60854,0.60854 0 0 0 11.490234,5.2558594 Z M 0.6015625,5.5546875 A 0.60854,0.60854 0 0 0 0,6.171875 v 0.041016 a 0.60860085,0.60860085 0 0 0 0,0.013672 l 0.00585938,0.140625 A 0.60860085,0.60860085 0 0 0 0.0078125,6.3828125 L 0.015625,6.5214844 a 0.60860085,0.60860085 0 0 0 0.0019531,0.015625 L 0.02929688,6.6757812 A 0.60860085,0.60860085 0 0 0 0.03125,6.6894531 L 0.046875,6.828125 a 0.60860085,0.60860085 0 0 0 0.0019531,0.013672 l 0.01953125,0.1367187 a 0.60860085,0.60860085 0 0 0 0.0019531,0.015625 l 0.02148437,0.1347656 a 0.60860085,0.60860085 0 0 0 0.0039063,0.015625 l 0.02539063,0.1328125 a 0.60860085,0.60860085 0 0 0 0.001953,0.015625 l 0.0292969,0.1328125 a 0.60860085,0.60860085 0 0 0 0.003906,0.013672 l 0.0175781,0.072266 0.0136719,0.058594 a 0.60860085,0.60860085 0 0 0 0.003906,0.015625 l 0.0351563,0.1308594 a 0.60860085,0.60860085 0 0 0 0.003906,0.013672 l 0.0390625,0.1289063 a 0.60860085,0.60860085 0 0 0 0.003906,0.013672 l 0.0410156,0.1289062 a 0.60860085,0.60860085 0 0 0 0.005859,0.013672 l 0.0449219,0.125 a 0.60860085,0.60860085 0 0 0 0.003906,0.015625 l 0.046875,0.1230469 a 0.60860085,0.60860085 0 0 0 0.005859,0.013672 l 0.0507813,0.1230468 a 0.60860085,0.60860085 0 0 0 0.005859,0.015625 L 0.53125,8.5527344 a 0.60860085,0.60860085 0 0 0 0.005859,0.013672 L 0.59375,8.6855469 a 0.60860085,0.60860085 0 0 0 0.005859,0.013672 l 0.0390625,0.080078 A 0.60854,0.60854 0 0 0 1.4550781,9.0527344 0.60854,0.60854 0 0 0 1.7304687,8.2363281 L 1.6933594,8.1640625 1.6445312,8.0585938 1.5957031,7.9492187 1.5527344,7.8398437 1.5097656,7.7304687 1.4707031,7.6171875 1.4335937,7.5058594 1.4003906,7.390625 1.3691406,7.2753906 1.3554687,7.2246094 1.3398437,7.1582031 1.3144531,7.0410156 1.2910156,6.921875 1.2714844,6.8027344 1.2539062,6.6816406 1.2402344,6.5605469 1.2304687,6.4375 1.2226562,6.3125 1.2167969,6.1894531 V 6.15625 A 0.60854,0.60854 0 0 0 0.6015625,5.5546875 Z M 9.5507813,9.7050781 A 0.60854,0.60854 0 0 0 9.1035156,9.8359375 l -0.048828,0.041016 -0.09375,0.070312 -0.09375,0.068359 -0.095703,0.06641 -0.097656,0.06445 -0.099609,0.0625 -0.099609,0.05859 -0.1035156,0.05859 -0.1035157,0.05469 -0.076172,0.03711 -0.029297,0.01367 -0.1054688,0.05078 -0.1074219,0.04687 -0.109375,0.04492 -0.1113281,0.04101 -0.1113281,0.04102 -0.1132813,0.03516 -0.1152343,0.03516 -0.1152344,0.03125 -0.099609,0.02344 a 0.60854,0.60854 0 0 0 -0.4472656,0.736328 0.60854,0.60854 0 0 0 0.7363281,0.447266 L 7.5703125,11.9375 a 0.60860085,0.60860085 0 0 0 0.013672,-0.0039 l 0.1308593,-0.03516 a 0.60860085,0.60860085 0 0 0 0.013672,-0.0039 l 0.1289063,-0.03711 a 0.60860085,0.60860085 0 0 0 0.015625,-0.0059 L 8,11.810547 a 0.60860085,0.60860085 0 0 0 0.013672,-0.0039 l 0.1269531,-0.04492 a 0.60860085,0.60860085 0 0 0 0.013672,-0.0059 l 0.125,-0.04687 a 0.60860085,0.60860085 0 0 0 0.013672,-0.0059 l 0.1230468,-0.05078 a 0.60860085,0.60860085 0 0 0 0.013672,-0.0059 l 0.1210938,-0.05273 a 0.60860085,0.60860085 0 0 0 0.013672,-0.0059 l 0.1210938,-0.05664 a 0.60860085,0.60860085 0 0 0 0.011719,-0.0059 l 0.035156,-0.01758 0.083984,-0.04102 a 0.60860085,0.60860085 0 0 0 0.013672,-0.0078 l 0.1171875,-0.06055 a 0.60860085,0.60860085 0 0 0 0.011719,-0.0078 l 0.1152344,-0.06445 a 0.60860085,0.60860085 0 0 0 0.013672,-0.0059 l 0.1132813,-0.06836 a 0.60860085,0.60860085 0 0 0 0.011719,-0.0078 l 0.1113282,-0.06836 a 0.60860085,0.60860085 0 0 0 0.013672,-0.0078 l 0.109375,-0.07227 a 0.60860085,0.60860085 0 0 0 0.011719,-0.0078 l 0.1074219,-0.07617 a 0.60860085,0.60860085 0 0 0 0.011719,-0.0078 l 0.1074219,-0.07813 a 0.60860085,0.60860085 0 0 0 0.011719,-0.0078 l 0.1035157,-0.08008 a 0.60860085,0.60860085 0 0 0 0.011719,-0.0098 l 0.054687,-0.04297 A 0.60854,0.60854 0 0 0 9.9589844,9.9277344 0.60854,0.60854 0 0 0 9.5507813,9.7050781 Z M 2.6386719,9.7695313 A 0.60854,0.60854 0 0 0 2.234375,10.001953 0.60854,0.60854 0 0 0 2.3476563,10.855469 l 0.080078,0.0625 a 0.60860085,0.60860085 0 0 0 0.011719,0.0078 l 0.1054688,0.07813 a 0.60860085,0.60860085 0 0 0 0.013672,0.0078 l 0.1074218,0.07617 a 0.60860085,0.60860085 0 0 0 0.011719,0.0078 l 0.109375,0.07227 a 0.60860085,0.60860085 0 0 0 0.013672,0.0078 l 0.1113281,0.06836 a 0.60860085,0.60860085 0 0 0 0.011719,0.0078 l 0.1132813,0.06836 a 0.60860085,0.60860085 0 0 0 0.013672,0.0059 l 0.1152343,0.06445 a 0.60860085,0.60860085 0 0 0 0.011719,0.0078 l 0.1171875,0.06055 a 0.60860085,0.60860085 0 0 0 0.013672,0.0078 l 0.1171875,0.05859 a 0.60860085,0.60860085 0 0 0 0.013672,0.0059 l 0.056641,0.02734 0.064453,0.0293 a 0.60860085,0.60860085 0 0 0 0.013672,0.0059 l 0.1210937,0.05273 a 0.60860085,0.60860085 0 0 0 0.013672,0.0059 l 0.1230469,0.05078 a 0.60860085,0.60860085 0 0 0 0.013672,0.0059 l 0.125,0.04687 a 0.60860085,0.60860085 0 0 0 0.013672,0.0059 l 0.1269531,0.04492 a 0.60860085,0.60860085 0 0 0 0.013672,0.0039 l 0.1269531,0.04102 a 0.60860085,0.60860085 0 0 0 0.013672,0.0059 l 0.1289062,0.03711 a 0.60860085,0.60860085 0 0 0 0.015625,0.0039 l 0.1289063,0.03516 a 0.60860085,0.60860085 0 0 0 0.015625,0.0039 l 0.1308594,0.0332 a 0.60860085,0.60860085 0 0 0 0.015625,0.002 l 0.074219,0.01758 A 0.60854,0.60854 0 0 0 5.4980469,11.523438 0.60854,0.60854 0 0 0 5.0332031,10.800781 l -0.066406,-0.01563 -0.1152344,-0.02734 -0.1171875,-0.03125 -0.1132813,-0.03516 -0.1132812,-0.03516 -0.1113281,-0.04102 -0.1113282,-0.04101 -0.109375,-0.04492 -0.1074218,-0.04687 -0.058594,-0.02734 -0.048828,-0.02344 -0.1054687,-0.05078 -0.1035157,-0.05469 -0.1015625,-0.05859 -0.1015625,-0.05859 -0.097656,-0.0625 -0.097656,-0.06445 -0.095703,-0.06641 -0.095703,-0.068359 -0.074219,-0.056641 A 0.60854,0.60854 0 0 0 2.6386719,9.7695313 Z"
        fill="#222222" />
</svg>
